HIERARCHY
ROOT Model
{
	OFFSET 0 0 0
	CHANNELS 6 Xposition Yposition Zposition Zrotation Xrotation Yrotation
	JOINT Model1
	{
		OFFSET 0 -2.25479 2.99383
		CHANNELS 3 Zrotation Xrotation Yrotation
		JOINT Model2
		{
			OFFSET 12.111 0 0
			CHANNELS 3 Zrotation Xrotation Yrotation
			JOINT Model3
			{
				OFFSET 11.5502 0 0
				CHANNELS 3 Zrotation Xrotation Yrotation
				JOINT Model4
				{
					OFFSET 11.781 0 0
					CHANNELS 3 Zrotation Xrotation Yrotation
					JOINT Model5
					{
						OFFSET 20.0601 0 0
						CHANNELS 3 Zrotation Xrotation Yrotation
						JOINT Model6
						{
							OFFSET 11.1962 0 0
							CHANNELS 3 Zrotation Xrotation Yrotation
							End Site
							{
								OFFSET 0 0 0
							}
						}
					}
					JOINT Model7
					{
						OFFSET 10.8223 0.417538 3.51114
						CHANNELS 3 Zrotation Xrotation Yrotation
						JOINT Model8
						{
							OFFSET -6.07944 0 0
							CHANNELS 3 Zrotation Xrotation Yrotation
							JOINT Model9
							{
								OFFSET -0.27742 10.39 -0.0512447
								CHANNELS 3 Zrotation Xrotation Yrotation
								JOINT Model10
								{
									OFFSET -3.4391 -0.282043 1.86678
									CHANNELS 3 Zrotation Xrotation Yrotation
									JOINT Model11
									{
										OFFSET 13.0269 0 0
										CHANNELS 3 Zrotation Xrotation Yrotation
										JOINT Model12
										{
											OFFSET 10.8866 0 0
											CHANNELS 3 Zrotation Xrotation Yrotation
											JOINT Model13
											{
												OFFSET 16.7317 0 0
												CHANNELS 3 Zrotation Xrotation Yrotation
												JOINT Model14
												{
													OFFSET 11.8292 0 0
													CHANNELS 3 Zrotation Xrotation Yrotation
													JOINT Model15
													{
														OFFSET 4.82751 -3.73566 -0.836517
														CHANNELS 3 Zrotation Xrotation Yrotation
														JOINT Model16
														{
															OFFSET 3.75311 -0.0582924 -0.0186462
															CHANNELS 3 Zrotation Xrotation Yrotation
															JOINT Model17
															{
																OFFSET 2.88689 0.0192337 0.0148029
																CHANNELS 3 Zrotation Xrotation Yrotation
																End Site
																{
																	OFFSET 0 0 0
																}
															}
														}
													}
													JOINT Model18
													{
														OFFSET 9.72197 -3.06458 0.238768
														CHANNELS 3 Zrotation Xrotation Yrotation
														JOINT Model19
														{
															OFFSET 4.61131 0 0
															CHANNELS 3 Zrotation Xrotation Yrotation
															JOINT Model20
															{
																OFFSET 2.8969 -1.14441e-005 0
																CHANNELS 3 Zrotation Xrotation Yrotation
																End Site
																{
																	OFFSET 0 0 0
																}
															}
														}
													}
													JOINT Model21
													{
														OFFSET 9.54431 -0.745064 0.588938
														CHANNELS 3 Zrotation Xrotation Yrotation
														JOINT Model22
														{
															OFFSET 5.33978 0 0
															CHANNELS 3 Zrotation Xrotation Yrotation
															JOINT Model23
															{
																OFFSET 3.03619 1.14441e-005 0
																CHANNELS 3 Zrotation Xrotation Yrotation
																End Site
																{
																	OFFSET 0 0 0
																}
															}
														}
													}
													JOINT Model24
													{
														OFFSET 9.47758 1.51286 0.485121
														CHANNELS 3 Zrotation Xrotation Yrotation
														JOINT Model25
														{
															OFFSET 4.96136 1.14441e-005 0
															CHANNELS 3 Zrotation Xrotation Yrotation
															JOINT Model26
															{
																OFFSET 2.51965 0 0
																CHANNELS 3 Zrotation Xrotation Yrotation
																End Site
																{
																	OFFSET 0 0 0
																}
															}
														}
													}
													JOINT Model27
													{
														OFFSET 9.34247 3.34117 -0.239281
														CHANNELS 3 Zrotation Xrotation Yrotation
														JOINT Model28
														{
															OFFSET 3.28259 2.67029e-005 0
															CHANNELS 3 Zrotation Xrotation Yrotation
															JOINT Model29
															{
																OFFSET 2.1292 0 0
																CHANNELS 3 Zrotation Xrotation Yrotation
																End Site
																{
																	OFFSET 0 0 0
																}
															}
														}
													}
												}
											}
										}
									}
								}
							}
						}
					}
					JOINT Model30
					{
						OFFSET 10.8223 0.4179 -3.51107
						CHANNELS 3 Zrotation Xrotation Yrotation
						JOINT Model31
						{
							OFFSET 6.07944 0 0
							CHANNELS 3 Zrotation Xrotation Yrotation
							JOINT Model32
							{
								OFFSET 0.27742 -10.39 0.0512447
								CHANNELS 3 Zrotation Xrotation Yrotation
								JOINT Model33
								{
									OFFSET 3.4391 0.282043 -1.86678
									CHANNELS 3 Zrotation Xrotation Yrotation
									JOINT Model34
									{
										OFFSET -13.0269 0 0
										CHANNELS 3 Zrotation Xrotation Yrotation
										JOINT Model35
										{
											OFFSET -10.8866 0 0
											CHANNELS 3 Zrotation Xrotation Yrotation
											JOINT Model36
											{
												OFFSET -16.7317 0 0
												CHANNELS 3 Zrotation Xrotation Yrotation
												JOINT Model37
												{
													OFFSET -11.8292 0 0
													CHANNELS 3 Zrotation Xrotation Yrotation
													JOINT Model38
													{
														OFFSET -4.82751 3.73566 0.836516
														CHANNELS 3 Zrotation Xrotation Yrotation
														JOINT Model39
														{
															OFFSET -3.75311 0.0582848 0.0186434
															CHANNELS 3 Zrotation Xrotation Yrotation
															JOINT Model40
															{
																OFFSET -2.88687 -0.0192375 -0.014802
																CHANNELS 3 Zrotation Xrotation Yrotation
																End Site
																{
																	OFFSET 0 0 0
																}
															}
														}
													}
													JOINT Model41
													{
														OFFSET -9.72198 3.06459 -0.23877
														CHANNELS 3 Zrotation Xrotation Yrotation
														JOINT Model42
														{
															OFFSET -4.6113 0 0
															CHANNELS 3 Zrotation Xrotation Yrotation
															JOINT Model43
															{
																OFFSET -2.89691 0 0
																CHANNELS 3 Zrotation Xrotation Yrotation
																End Site
																{
																	OFFSET 0 0 0
																}
															}
														}
													}
													JOINT Model44
													{
														OFFSET -9.54431 0.745064 -0.588939
														CHANNELS 3 Zrotation Xrotation Yrotation
														JOINT Model45
														{
															OFFSET -5.33978 0 0
															CHANNELS 3 Zrotation Xrotation Yrotation
															JOINT Model46
															{
																OFFSET -3.03619 -1.52588e-005 0
																CHANNELS 3 Zrotation Xrotation Yrotation
																End Site
																{
																	OFFSET 0 0 0
																}
															}
														}
													}
													JOINT Model47
													{
														OFFSET -9.4776 -1.51286 -0.485122
														CHANNELS 3 Zrotation Xrotation Yrotation
														JOINT Model48
														{
															OFFSET -4.96136 -1.52588e-005 0
															CHANNELS 3 Zrotation Xrotation Yrotation
															JOINT Model49
															{
																OFFSET -2.51965 0 0
																CHANNELS 3 Zrotation Xrotation Yrotation
																End Site
																{
																	OFFSET 0 0 0
																}
															}
														}
													}
													JOINT Model50
													{
														OFFSET -9.34247 -3.34118 0.239278
														CHANNELS 3 Zrotation Xrotation Yrotation
														JOINT Model51
														{
															OFFSET -3.28259 -1.90735e-005 0
															CHANNELS 3 Zrotation Xrotation Yrotation
															JOINT Model52
															{
																OFFSET -2.12921 0 0
																CHANNELS 3 Zrotation Xrotation Yrotation
																End Site
																{
																	OFFSET 0 0 0
																}
															}
														}
													}
												}
											}
										}
									}
								}
							}
						}
					}
				}
			}
		}
	}
	JOINT Model53
	{
		OFFSET 4.38025 -2.14632 -1.11516
		CHANNELS 3 Zrotation Xrotation Yrotation
		JOINT Model54
		{
			OFFSET 0 0 4.94999
			CHANNELS 3 Zrotation Xrotation Yrotation
			JOINT Model55
			{
				OFFSET 18.5642 0 0
				CHANNELS 3 Zrotation Xrotation Yrotation
				JOINT Model56
				{
					OFFSET 21.2884 0 1.14441e-005
					CHANNELS 3 Zrotation Xrotation Yrotation
					JOINT Model57
					{
						OFFSET 30.261 0 0
						CHANNELS 3 Zrotation Xrotation Yrotation
						JOINT Model58
						{
							OFFSET 11.7259 0 0
							CHANNELS 3 Zrotation Xrotation Yrotation
							JOINT Model59
							{
								OFFSET 10.682 0 0
								CHANNELS 3 Zrotation Xrotation Yrotation
								End Site
								{
									OFFSET 0 0 0
								}
							}
						}
					}
				}
			}
		}
	}
	JOINT Model60
	{
		OFFSET -4.38025 -2.14632 -1.11516
		CHANNELS 3 Zrotation Xrotation Yrotation
		JOINT Model61
		{
			OFFSET 0 0 -4.94999
			CHANNELS 3 Zrotation Xrotation Yrotation
			JOINT Model62
			{
				OFFSET -18.5642 0 0
				CHANNELS 3 Zrotation Xrotation Yrotation
				JOINT Model63
				{
					OFFSET -21.2884 0 -1.14441e-005
					CHANNELS 3 Zrotation Xrotation Yrotation
					JOINT Model64
					{
						OFFSET -30.261 0 0
						CHANNELS 3 Zrotation Xrotation Yrotation
						JOINT Model65
						{
							OFFSET -11.7259 0 0
							CHANNELS 3 Zrotation Xrotation Yrotation
							JOINT Model66
							{
								OFFSET -10.682 0 0
								CHANNELS 3 Zrotation Xrotation Yrotation
								End Site
								{
									OFFSET 0 0 0
								}
							}
						}
					}
				}
			}
		}
	}
}
MOTION
Frames: 4
Frame Time: 0.033333
-226.604 132.533 -172.565 72.4229 -26.7658 80.4576 -180 4.29621e-031 -90 3.71957 -1.98646 -0.760159 7.41926 -4.01837 -1.39095 7.41926 -4.01794 -1.39101 55.2084 7.56194 -0.181388 -39.0009 8.25664 -0.313034 120.092 75.5343 58.4939 -13.9657 8.30327 6.47667 -167.277 84.4999 48.8109 145.586 4.71216 1.11797 -1.02773e-006 27.2227 3.53891e-005 -35.186 -3.48035 0.351804 -4.58003e-007 -5.77325 -8.19171e-007 -14.518 3.17148 -24.5246 -72.0648 39.0385 39.3397 33.3638 2.10362 14.835 0.588947 0.308273 6.35287 -99.6409 81.413 100.35 -0.0181409 2.78246e-005 -0.117315 -0.124139 0.00241118 -0.799296 -79.8382 79.5773 80.5374 -0.000225764 -0.000220877 2.21871e-005 -0.00095621 0.000122957 -2.73304e-005 -66.7416 80.4058 67.2171 -0.00043712 1.59919e-005 -2.73296e-005 -0.000136588 -0.000109228 -5.46533e-005 -6.42159 81.2158 8.01779 -0.000218556 1.69455e-005 0.000212125 0.000901598 -0.000184751 -0.000218586 -59.9282 75.5373 58.5147 -17.5486 9.74982 8.14193 -167.277 84.4999 48.8109 173.573 -1.07601 21.3458 -1.82286e-006 14.1849 3.34169e-005 -75.3614 11.9041 0.602437 -6.69555e-006 17.2584 2.98612e-006 -10.6093 1.24935 -13.3851 -72.0648 39.0385 39.3397 33.3638 2.10361 14.835 0.588946 0.308273 6.35287 -99.6409 81.413 100.35 -0.0181409 3.00625e-005 -0.117315 -0.124139 0.00241111 -0.799296 -79.8382 79.5773 80.5374 -0.00026061 -0.000218582 2.35699e-005 -0.000956177 0.000122975 -2.73213e-005 -66.7416 80.4058 67.2171 -0.000437095 1.4866e-005 -2.7323e-005 -0.000136554 -0.000109304 -5.46445e-005 -6.42159 81.2158 8.01779 -0.000218528 1.95619e-005 0.000212289 0.000901635 -0.000191268 -0.000218576 0.000811311 0.56661 89.91 -52.576 0.431571 -6.29117 3.54382e-007 1.41897 -1.21433e-009 57.9669 -3.77905 -0.00725651 -1.70849e-007 -5.7712 -1.69774e-007 -68.8096 9.08927 -5.79162 -35.4947 5.04927e-007 8.50619e-008 -180 -0.566579 -90.09 -45.5184 -18.0407 -19.2321 -8.90291e-006 -23.2733 -1.93666e-006 58.1666 14.4033 -0.00695133 6.1575e-007 21.5019 1.34941e-006 -57.6915 40.7078 -28.5218 -37.2232 -4.85641 0.113251 
-226.62 132.884 -172.427 72.3897 -26.0084 80.6015 -180 4.29621e-031 -90 3.73621 -2.10433 -0.790095 7.45072 -4.25598 -1.44267 7.45071 -4.25554 -1.44272 53.3232 8.23159 1.17617 -37.4868 8.79337 -0.82908 120.092 75.5343 58.4939 -14.3915 7.97745 6.4519 -167.277 84.4999 48.8109 143.136 3.0322 2.31579 7.85623e-007 24.5513 3.45971e-005 -37.5542 -1.23714 0.37132 -4.10211e-007 -2.43168 -8.1575e-007 -14.8355 3.55983 -26.8502 -72.0648 39.0385 39.3397 33.3638 2.10362 14.835 0.588947 0.308273 6.35287 -99.6409 81.413 100.35 -0.0181409 2.78246e-005 -0.117315 -0.124139 0.00241118 -0.799296 -79.8382 79.5773 80.5374 -0.000225764 -0.000220877 2.21871e-005 -0.00095621 0.000122957 -2.73304e-005 -66.7416 80.4058 67.2171 -0.00043712 1.59919e-005 -2.73296e-005 -0.000136588 -0.000109228 -5.46533e-005 -6.42159 81.2158 8.01779 -0.000218556 1.69455e-005 0.000212125 0.000901598 -0.000184751 -0.000218586 -59.9282 75.5373 58.5147 -18.1012 9.96731 8.40788 -167.277 84.4999 48.8109 171.723 -2.57968 21.5906 -5.97279e-007 12.1301 3.31379e-005 -67.893 12.5125 0.576723 -6.74304e-006 18.1245 3.00056e-006 -10.9204 1.14622 -11.9244 -72.0648 39.0385 39.3397 33.3638 2.10361 14.835 0.588946 0.308273 6.35287 -99.6409 81.413 100.35 -0.0181409 3.00625e-005 -0.117315 -0.124139 0.00241111 -0.799296 -79.8382 79.5773 80.5374 -0.00026061 -0.000218582 2.35699e-005 -0.000956177 0.000122975 -2.73213e-005 -66.7416 80.4058 67.2171 -0.000437095 1.4866e-005 -2.7323e-005 -0.000136554 -0.000109304 -5.46445e-005 -6.42159 81.2158 8.01779 -0.000218528 1.95619e-005 0.000212289 0.000901635 -0.000191268 -0.000218576 0.000811311 0.56661 89.91 -52.8183 1.19892 -5.41202 3.54404e-007 2.46142 -1.21508e-009 57.5409 -3.91874 -0.00729649 -1.71472e-007 -5.98021 -1.69838e-007 -66.734 7.33986 -4.94855 -35.4947 5.05286e-007 -1.60848e-007 -180 -0.566579 -90.09 -44.9515 -18.5064 -19.2384 -8.92383e-006 -23.8393 -1.94502e-006 57.1139 14.5158 -0.00687558 6.11442e-007 21.6719 1.35099e-006 -57.4206 40.6676 -28.6213 -37.2153 -4.83358 0.113454 
-226.641 133.545 -172.319 72.6977 -24.5358 80.9812 -180 4.29621e-031 -90 3.71487 -2.17489 -0.854678 7.40502 -4.40083 -1.56816 7.40501 -4.4004 -1.56822 51.3538 8.81597 3.26934 -36.1743 9.33001 -1.9313 120.092 75.5343 58.4939 -13.5577 8.88672 6.61658 -167.277 84.4999 48.8109 139.097 1.36496 5.50369 2.3713e-006 22.1178 3.39689e-005 -37.4481 1.16426 0.464129 -3.58951e-007 1.1703 -8.15186e-007 -15.4177 4.19819 -30.2531 -72.0648 39.0385 39.3397 33.3638 2.10362 14.835 0.588947 0.308273 6.35287 -99.6409 81.413 100.35 -0.0181409 2.78246e-005 -0.117315 -0.124139 0.00241118 -0.799296 -79.8382 79.5773 80.5374 -0.000225764 -0.000220877 2.21871e-005 -0.00095621 0.000122957 -2.73304e-005 -66.7416 80.4058 67.2171 -0.00043712 1.59919e-005 -2.73296e-005 -0.000136588 -0.000109228 -5.46533e-005 -6.42159 81.2158 8.01779 -0.000218556 1.69455e-005 0.000212125 0.000901598 -0.000184751 -0.000218586 -59.9282 75.5373 58.5147 -18.7891 9.98996 8.62319 -167.277 84.4999 48.8109 168.793 -4.76923 22.0518 1.13477e-006 9.17233 3.28176e-005 -54.965 12.1019 0.507724 -6.70813e-006 17.4887 2.98988e-006 -11.2929 0.730559 -7.41336 -72.0648 39.0385 39.3397 33.3638 2.10361 14.835 0.588946 0.308273 6.35287 -99.6409 81.413 100.35 -0.0181409 3.00625e-005 -0.117315 -0.124139 0.00241111 -0.799296 -79.8382 79.5773 80.5374 -0.00026061 -0.000218582 2.35699e-005 -0.000956177 0.000122975 -2.73213e-005 -66.7416 80.4058 67.2171 -0.000437095 1.4866e-005 -2.7323e-005 -0.000136554 -0.000109304 -5.46445e-005 -6.42159 81.2158 8.01779 -0.000218528 1.95619e-005 0.000212289 0.000901635 -0.000191268 -0.000218576 0.000811311 0.56661 89.91 -53.2098 1.58878 -4.85288 3.54414e-007 2.96351 -1.21558e-009 56.8609 -3.34629 -0.00733157 -1.68914e-007 -5.12068 -1.69591e-007 -62.8906 6.34413 -4.55022 -35.4947 5.05826e-007 -6.52143e-007 -180 -0.566579 -90.09 -43.6938 -19.377 -19.377 -8.96051e-006 -24.8201 -1.96013e-006 55.1257 14.7339 -0.00670668 6.03056e-007 22.0016 1.35411e-006 -56.6541 40.6082 -28.9439 -37.3002 -5.06724 0.111099 
-226.831 134.448 -172.286 73.2653 -22.884 81.4173 -180 4.29621e-031 -90 3.67808 -2.25688 -0.949005 7.32696 -4.57021 -1.75311 7.32696 -4.56978 -1.75317 49.8478 9.44364 4.14753 -36.0714 10.0369 -2.45653 120.092 75.5343 58.4939 -11.1126 10.6842 6.6778 -167.277 84.4999 48.8109 135.01 0.00399256 9.81293 3.29754e-006 20.6558 3.36311e-005 -29.906 2.70315 -0.308318 -3.24791e-007 3.56735 -8.16598e-007 -16.273 4.3057 -29.5454 -72.0648 39.0385 39.3397 33.3638 2.10362 14.835 0.588947 0.308273 6.35287 -99.6409 81.413 100.35 -0.0181409 2.78246e-005 -0.117315 -0.124139 0.00241118 -0.799296 -79.8382 79.5773 80.5374 -0.000225764 -0.000220877 2.21871e-005 -0.00095621 0.000122957 -2.73304e-005 -66.7416 80.4058 67.2171 -0.00043712 1.59919e-005 -2.73296e-005 -0.000136588 -0.000109228 -5.46533e-005 -6.42159 81.2158 8.01779 -0.000218556 1.69455e-005 0.000212125 0.000901598 -0.000184751 -0.000218586 -59.9282 75.5373 58.5147 -19.43 9.69198 8.66928 -167.277 84.4999 48.8109 167.985 -5.61019 22.6885 1.89997e-006 7.84876 3.27044e-005 -47.9758 11.6606 0.462644 -6.67265e-006 16.8379 2.97941e-006 -12.2516 0.493302 -4.57915 -72.0648 39.0385 39.3397 33.3638 2.10361 14.835 0.588946 0.308273 6.35287 -99.6409 81.413 100.35 -0.0181409 3.00625e-005 -0.117315 -0.124139 0.00241111 -0.799296 -79.8382 79.5773 80.5374 -0.00026061 -0.000218582 2.35699e-005 -0.000956177 0.000122975 -2.73213e-005 -66.7416 80.4058 67.2171 -0.000437095 1.4866e-005 -2.7323e-005 -0.000136554 -0.000109304 -5.46445e-005 -6.42159 81.2158 8.01779 -0.000218528 1.95619e-005 0.000212289 0.000901635 -0.000191268 -0.000218576 0.000811311 0.56661 89.91 -53.5883 1.26116 -5.06687 3.54404e-007 2.46787 -1.21509e-009 56.0711 -2.06642 -0.00736363 -1.6322e-007 -3.19987 -1.69177e-007 -59.0821 6.40436 -4.74248 -35.4947 5.06546e-007 -1.38809e-006 -180 -0.566579 -90.09 -42.0597 -20.2933 -19.2883 -8.999e-006 -25.8327 -1.9766e-006 52.4079 14.924 -0.00647232 5.95677e-007 22.2905 1.35689e-006 -55.4022 40.215 -29.2474 -37.4253 -5.41218 0.106811 
